<svg width="32" height="33" viewBox="0 0 32 33" fill="none" xmlns="http://www.w3.org/2000/svg"><g clip-path="url(#clip0_138_107)"><path d="M23.7248 19.6982L20.5251 16.4985L21.2032 15.8204L25.081 19.6982H31.9971V13.3018H23.7189H19.1953V12.3418H24.6788L29.5723 7.45129L25.0487 2.92767L19.1953 8.78107L15.9956 11.9778L15.3175 11.2997L19.1953 7.42193V0.5H12.7988V8.77814V13.3018H11.8389V7.81823L6.94835 2.92473L2.42473 7.44835L8.27814 13.3018L11.4778 16.5015L10.7997 17.1796L6.92193 13.3018H0V19.6982H8.27814H12.8018V20.6581H7.31823L2.42473 25.5487L6.94835 30.0723L12.8018 24.2189L16.0015 21.0222L16.6796 21.7003L12.8018 25.5781V32.4941H19.1982V24.216V19.6924H20.1581V25.1759L25.0487 30.0694L29.5723 25.5458L23.7189 19.6924L23.7248 19.6982ZM15.9897 19.7012C15.1237 19.7012 14.34 19.3518 13.7646 18.7912L13.7088 18.7354C13.1599 18.1718 12.8164 17.4085 12.8018 16.5631V16.4339C12.8194 15.6032 13.1511 14.8517 13.6824 14.294L13.794 14.1824C14.3546 13.6481 15.1061 13.3164 15.9339 13.3018H16.0631C16.9085 13.3194 17.6718 13.6599 18.2354 14.2118L18.2912 14.2675C18.8518 14.8429 19.2012 15.6267 19.2012 16.4927V16.5103C19.1953 18.2716 17.7686 19.6982 16.0103 19.7012H15.9927H15.9897Z" fill="#050505"/></g><defs><clipPath id="clip0_138_107"><rect width="32" height="32" fill="white" transform="translate(0 0.5)"/></clipPath></defs></svg>